[Header]                  # Header keywords are followed by a single value
FileType htr              # single word string
DataType HTRS             # Hierarchical translations followed by rotations and Scale
FileVersion 1             # integer
NumSegments   22        # integer
NumFrames   5          # integer
DataFrameRate    60      # integer
EulerRotationOrder ZYX    # one word string
CalibrationUnits mm   # one word string
RotationUnits Degrees     # one word string
GlobalAxisofGravity Y        # character, X or Y or Z
BoneLengthAxis Y
ScaleFactor 1.0000
[SegmentNames&Hierarchy]
#CHILD         PARENT
LowerTorso	GLOBAL
MidTorso1	LowerTorso
MidTorso2	MidTorso1
UpperTorso	MidTorso2
Neck	UpperTorso
Head	Neck
LCollar	UpperTorso
LUpArm	LCollar
LLowArm	LUpArm
LHand	LLowArm
RCollar	UpperTorso
RUpArm	RCollar
RLowArm	RUpArm
RHand	RLowArm
RThigh	LowerTorso
RLowLeg	RThigh
RFoot	RLowLeg
RToe	RFoot
LThigh	LowerTorso
LLowLeg	LThigh
LFoot	LLowLeg
LToe	LFoot
[BasePosition]
#SegmentName Tx, Ty, Tz, Rx, Ry, Rz, BoneLength
LowerTorso	245.858011	950.547112	300.901792	3.160114	-0.119681	0.216534	50.177140	
MidTorso1	0.000000	50.177140	0.000000	12.744977	0.544086	-1.233692	50.243103	
MidTorso2	0.000000	50.243103	0.000000	-8.561622	-5.666755	-0.324056	70.108070	
UpperTorso	0.000000	70.108070	0.000000	-7.840640	5.423498	1.565454	211.798493	
Neck	0.000000	211.798493	0.000000	3.763396	2.354772	0.143986	247.477358	
Head	0.000000	247.477358	0.000000	87.188098	-1.617490	-0.909978	97.755902	
LCollar	5.963899	207.774288	0.020038	-0.085181	3.120430	-88.053499	154.341182	
LUpArm	0.000000	154.341182	0.000000	17.609330	2.601210	1.098979	257.694232	
LLowArm	0.000000	257.694232	0.000000	-4.295116	-4.411555	-0.381267	245.288314	
LHand	0.000000	245.288314	0.000000	-1.254656	0.451892	-3.187610	143.943585	
RCollar	-6.407295	207.548200	-0.033576	-3.957489	-2.573361	89.782717	159.716168	
RUpArm	0.000000	159.716168	0.000000	10.569861	0.025507	1.593474	259.181013	
RLowArm	0.000000	259.181013	0.000000	2.433186	-0.094719	0.439860	254.783021	
RHand	0.000000	254.783021	0.000000	-2.521327	-1.940663	10.821380	138.724995	
RThigh	-104.582724	-43.868855	71.110148	1.186921	1.056410	177.271085	484.665755	
RLowLeg	0.000000	484.665755	0.000000	-9.413113	-2.560999	2.584420	338.943480	
RFoot	0.000000	338.943480	0.000000	38.119802	-1.210697	-2.462270	108.422675	
RToe	0.000000	108.422675	0.000000	62.205972	5.729825	0.107186	135.948299	
LThigh	104.514322	-44.027056	71.110540	1.887019	-3.794944	-176.973714	484.665500	
LLowLeg	0.000000	484.665500	0.000000	-9.413064	2.561022	-2.584327	338.944952	
LFoot	0.000000	338.944952	0.000000	38.119895	1.210631	2.462181	108.422417	
LToe	0.000000	108.422417	0.000000	62.206117	-5.729564	-0.107296	135.948400	
#Beginning of Data. Separated by tabs
[LowerTorso]
#Fr     Tx      Ty      Tz      Rx      Ry      Rz      SF
613	1320.285645	-71.478828	812.979309	-0.524968	-49.373631	5.354165	1.000000	
614	1314.384521	-74.299881	796.491943	-0.684999	-49.674015	4.797202	1.000000	
615	1308.920410	-77.361748	781.264099	-1.569870	-50.086861	4.647579	1.000000	
616	1303.675171	-80.457199	766.941406	-2.993047	-50.692665	4.946765	1.000000	
617	1298.299438	-83.284584	753.591370	-4.933454	-51.431641	5.770271	1.000000	
[MidTorso1]
#Fr     Tx      Ty      Tz      Rx      Ry      Rz      SF
613	0.000000	0.000000	0.000000	3.245714	0.141440	-1.482939	1.000000	
614	0.000000	0.000000	0.000000	3.607556	0.027855	-1.253121	1.000000	
615	0.000000	0.000000	0.000000	4.160295	-0.042041	-1.131949	1.000000	
616	0.000000	0.000000	0.000000	4.794588	-0.017904	-1.156469	1.000000	
617	0.000000	0.000000	0.000000	5.435068	0.093235	-1.339750	1.000000	
[MidTorso2]
#Fr     Tx      Ty      Tz      Rx      Ry      Rz      SF
613	0.000000	0.000000	0.000000	3.077755	0.431566	-1.751125	1.000000	
614	0.000000	0.000000	0.000000	3.462478	0.295178	-1.576076	1.000000	
615	0.000000	0.000000	0.000000	4.025528	0.223115	-1.519739	1.000000	
616	0.000000	0.000000	0.000000	4.653628	0.268032	-1.600569	1.000000	
617	0.000000	0.000000	0.000000	5.270197	0.422858	-1.825318	1.000000	
[UpperTorso]
#Fr     Tx      Ty      Tz      Rx      Ry      Rz      SF
613	0.000000	0.000000	0.000000	3.239830	0.536183	-1.392645	1.000000	
614	0.000000	0.000000	0.000000	3.602359	0.359696	-1.205867	1.000000	
615	0.000000	0.000000	0.000000	4.155317	0.254775	-1.111565	1.000000	
616	0.000000	0.000000	0.000000	4.789618	0.280918	-1.130572	1.000000	
617	0.000000	0.000000	0.000000	5.429724	0.435575	-1.277145	1.000000	
[Neck]
#Fr     Tx      Ty      Tz      Rx      Ry      Rz      SF
613	0.000000	0.000000	0.000000	-21.020378	7.394298	-0.315387	1.000000	
614	0.000000	0.000000	0.000000	-21.766527	8.406537	-0.770522	1.000000	
615	0.000000	0.000000	0.000000	-22.750095	9.256786	-1.067767	1.000000	
616	0.000000	0.000000	0.000000	-23.818804	9.940813	-1.252542	1.000000	
617	0.000000	0.000000	0.000000	-24.732359	10.489037	-1.359826	1.000000	
[Head]
#Fr     Tx      Ty      Tz      Rx      Ry      Rz      SF
613	0.000000	0.000000	0.000000	1.371274	0.800935	-0.045611	1.000000	
614	0.000000	0.000000	0.000000	1.379063	0.134731	-0.026695	1.000000	
615	0.000000	0.000000	0.000000	1.520888	-0.508861	-0.033546	1.000000	
616	0.000000	0.000000	0.000000	1.745196	-0.898692	-0.059672	1.000000	
617	0.000000	0.000000	0.000000	1.846487	-0.977546	-0.079908	1.000000	
[LCollar]
#Fr     Tx      Ty      Tz      Rx      Ry      Rz      SF
613	0.000000	0.000000	0.000000	5.545845	1.501662	-15.103720	1.000000	
614	0.000000	0.000000	0.000000	5.760109	1.589383	-15.374059	1.000000	
615	0.000000	0.000000	0.000000	6.179616	1.728882	-15.569896	1.000000	
616	0.000000	0.000000	0.000000	6.822099	1.922689	-15.665709	1.000000	
617	0.000000	0.000000	0.000000	7.547256	2.132027	-15.683939	1.000000	
[LUpArm]
#Fr     Tx      Ty      Tz      Rx      Ry      Rz      SF
613	0.000000	0.000000	0.000000	5.535701	13.245317	-46.078354	1.000000	
614	0.000000	0.000000	0.000000	6.057055	13.906755	-45.475391	1.000000	
615	0.000000	0.000000	0.000000	6.578672	15.198977	-44.647568	1.000000	
616	0.000000	0.000000	0.000000	7.049451	16.736471	-43.678944	1.000000	
617	0.000000	0.000000	0.000000	7.562885	18.092896	-42.713867	1.000000	
[LLowArm]
#Fr     Tx      Ty      Tz      Rx      Ry      Rz      SF
613	0.000000	0.000000	0.000000	33.758289	-0.006958	-0.002111	1.000000	
614	0.000000	0.000000	0.000000	33.165146	-0.006850	-0.002039	1.000000	
615	0.000000	0.000000	0.000000	32.896770	-0.006801	-0.002007	1.000000	
616	0.000000	0.000000	0.000000	32.977909	-0.006816	-0.002017	1.000000	
617	0.000000	0.000000	0.000000	33.209354	-0.006858	-0.002044	1.000000	
[LHand]
#Fr     Tx      Ty      Tz      Rx      Ry      Rz      SF
613	0.000000	0.000000	0.000000	-162.496658	-6.412001	175.625778	1.000000	
614	0.000000	0.000000	0.000000	-163.019119	-6.569127	175.121246	1.000000	
615	0.000000	0.000000	0.000000	-163.524170	-5.781980	175.327072	1.000000	
616	0.000000	0.000000	0.000000	-163.899826	-4.478290	176.026062	1.000000	
617	0.000000	0.000000	0.000000	-164.085190	-3.251822	176.883514	1.000000	
[RCollar]
#Fr     Tx      Ty      Tz      Rx      Ry      Rz      SF
613	0.000000	0.000000	0.000000	7.360631	-3.115297	22.816235	1.000000	
614	0.000000	0.000000	0.000000	7.618062	-3.237770	22.893135	1.000000	
615	0.000000	0.000000	0.000000	8.021459	-3.411922	22.894941	1.000000	
616	0.000000	0.000000	0.000000	8.410945	-3.567633	22.823200	1.000000	
617	0.000000	0.000000	0.000000	8.655819	-3.656363	22.729275	1.000000	
[RUpArm]
#Fr     Tx      Ty      Tz      Rx      Ry      Rz      SF
613	0.000000	0.000000	0.000000	6.838476	-26.197756	40.912155	1.000000	
614	0.000000	0.000000	0.000000	7.033923	-26.817795	39.561428	1.000000	
615	0.000000	0.000000	0.000000	7.262534	-27.218714	38.154751	1.000000	
616	0.000000	0.000000	0.000000	7.578562	-27.475889	36.874249	1.000000	
617	0.000000	0.000000	0.000000	7.975677	-27.616289	35.873974	1.000000	
[RLowArm]
#Fr     Tx      Ty      Tz      Rx      Ry      Rz      SF
613	0.000000	0.000000	0.000000	46.806808	0.000012	0.000021	1.000000	
614	0.000000	0.000000	0.000000	46.212032	0.000012	0.000021	1.000000	
615	0.000000	0.000000	0.000000	45.215328	0.000012	0.000021	1.000000	
616	0.000000	0.000000	0.000000	43.739815	0.000012	0.000020	1.000000	
617	0.000000	0.000000	0.000000	41.817444	0.000012	0.000019	1.000000	
[RHand]
#Fr     Tx      Ty      Tz      Rx      Ry      Rz      SF
613	0.000000	0.000000	0.000000	179.212387	6.812858	-177.412506	1.000000	
614	0.000000	0.000000	0.000000	178.156097	6.951436	-177.070679	1.000000	
615	0.000000	0.000000	0.000000	176.982071	6.245137	-177.228226	1.000000	
616	0.000000	0.000000	0.000000	175.995239	4.713000	-177.726654	1.000000	
617	0.000000	0.000000	0.000000	175.542236	2.965091	-178.259857	1.000000	
[RThigh]
#Fr     Tx      Ty      Tz      Rx      Ry      Rz      SF
613	0.000000	0.000000	0.000000	15.567211	-1.017439	-8.368556	1.000000	
614	0.000000	0.000000	0.000000	16.205736	0.322535	-7.134655	1.000000	
615	0.000000	0.000000	0.000000	16.349977	1.221393	-6.195587	1.000000	
616	0.000000	0.000000	0.000000	16.173878	1.219648	-5.462324	1.000000	
617	0.000000	0.000000	0.000000	15.746899	0.241345	-4.891518	1.000000	
[RLowLeg]
#Fr     Tx      Ty      Tz      Rx      Ry      Rz      SF
613	0.000000	0.000000	0.000000	-36.903278	-0.000001	-0.000013	1.000000	
614	0.000000	0.000000	0.000000	-38.847389	-0.000002	-0.000014	1.000000	
615	0.000000	0.000000	0.000000	-40.632706	-0.000002	-0.000015	1.000000	
616	0.000000	0.000000	0.000000	-42.145397	-0.000002	-0.000015	1.000000	
617	0.000000	0.000000	0.000000	-43.393974	-0.000002	-0.000015	1.000000	
[RFoot]
#Fr     Tx      Ty      Tz      Rx      Ry      Rz      SF
613	0.000000	0.000000	0.000000	16.164030	-0.714758	2.464428	1.000000	
614	0.000000	0.000000	0.000000	17.739828	-1.558231	4.858633	1.000000	
615	0.000000	0.000000	0.000000	18.988516	-2.345221	6.781724	1.000000	
616	0.000000	0.000000	0.000000	20.041275	-2.797443	7.620441	1.000000	
617	0.000000	0.000000	0.000000	20.819876	-2.742437	7.171559	1.000000	
[RToe]
#Fr     Tx      Ty      Tz      Rx      Ry      Rz      SF
613	0.000000	0.000000	0.000000	12.798067	0.000024	0.000008	1.000000	
614	0.000000	0.000000	0.000000	12.383723	0.000023	0.000008	1.000000	
615	0.000000	0.000000	0.000000	11.894600	0.000022	0.000007	1.000000	
616	0.000000	0.000000	0.000000	11.448622	0.000021	0.000007	1.000000	
617	0.000000	0.000000	0.000000	11.221621	0.000021	0.000007	1.000000	
[LThigh]
#Fr     Tx      Ty      Tz      Rx      Ry      Rz      SF
613	0.000000	0.000000	0.000000	24.781483	-16.916750	14.394929	1.000000	
614	0.000000	0.000000	0.000000	24.077133	-13.068501	16.481375	1.000000	
615	0.000000	0.000000	0.000000	23.024515	-9.031058	18.135710	1.000000	
616	0.000000	0.000000	0.000000	21.821011	-5.404657	19.118778	1.000000	
617	0.000000	0.000000	0.000000	20.461645	-2.450749	19.264450	1.000000	
[LLowLeg]
#Fr     Tx      Ty      Tz      Rx      Ry      Rz      SF
613	0.000000	0.000000	0.000000	-18.766035	0.000034	-0.000014	1.000000	
614	0.000000	0.000000	0.000000	-18.283476	0.000033	-0.000013	1.000000	
615	0.000000	0.000000	0.000000	-18.151714	0.000033	-0.000013	1.000000	
616	0.000000	0.000000	0.000000	-18.563572	0.000033	-0.000014	1.000000	
617	0.000000	0.000000	0.000000	-19.506836	0.000035	-0.000015	1.000000	
[LFoot]
#Fr     Tx      Ty      Tz      Rx      Ry      Rz      SF
613	0.000000	0.000000	0.000000	0.212305	0.027139	-7.289127	1.000000	
614	0.000000	0.000000	0.000000	1.179896	0.144635	-6.988491	1.000000	
615	0.000000	0.000000	0.000000	1.701581	0.198912	-6.666137	1.000000	
616	0.000000	0.000000	0.000000	2.284850	0.261979	-6.537899	1.000000	
617	0.000000	0.000000	0.000000	3.233752	0.366796	-6.464710	1.000000	
[LToe]
#Fr     Tx      Ty      Tz      Rx      Ry      Rz      SF
613	0.000000	0.000000	0.000000	-5.623366	-0.000016	-0.000001	1.000000	
614	0.000000	0.000000	0.000000	-5.668968	-0.000016	-0.000001	1.000000	
615	0.000000	0.000000	0.000000	-5.776478	-0.000016	-0.000001	1.000000	
616	0.000000	0.000000	0.000000	-6.142489	-0.000017	-0.000001	1.000000	
617	0.000000	0.000000	0.000000	-6.791063	-0.000019	-0.000001	1.000000	
[EndOfFile]
